<?xml version="1.0" standalone="no"?>
<!DOCTYPE svg PUBLIC "-//W3C//DTD SVG 20010904//EN"
 "http://www.w3.org/TR/2001/REC-SVG-20010904/DTD/svg10.dtd">
<svg version="1.0" xmlns="http://www.w3.org/2000/svg"
 width="1177.000000pt" height="1177.000000pt" viewBox="0 0 1177.000000 1177.000000"
 preserveAspectRatio="xMidYMid meet">
<metadata>
Created by potrace 1.11, written by Peter Selinger 2001-2013
</metadata>
<g transform="translate(0.000000,1177.000000) scale(0.100000,-0.100000)"
fill="#000000" stroke="none">
<path d="M6410 11760 c-1 -3 -4 -21 -7 -40 -2 -19 -17 -71 -33 -115 -140 -398
-249 -717 -266 -780 -4 -16 -8 -33 -9 -37 -2 -5 -3 -15 -4 -23 -1 -13 -11 -15
-54 -10 l-54 6 -18 -103 c-11 -57 -18 -134 -17 -172 l1 -68 -35 7 c-20 3 -42
9 -49 11 -10 4 -19 -11 -31 -53 -9 -32 -18 -69 -20 -83 -1 -14 -7 -47 -12 -74
-6 -27 -9 -86 -8 -132 3 -93 -3 -100 -62 -70 -53 26 -70 28 -81 8 -25 -47 -31
-213 -12 -315 8 -37 11 -70 8 -73 -3 -3 -31 3 -62 15 -87 33 -93 30 -97 -31
-2 -29 0 -73 4 -98 3 -25 9 -70 13 -100 3 -30 15 -78 25 -107 20 -55 18 -63
-15 -57 -11 2 -44 6 -73 10 l-53 6 2 -123 c1 -68 8 -149 15 -179 7 -30 13 -56
13 -58 0 -1 7 -23 17 -47 9 -25 14 -48 11 -52 -4 -3 -26 0 -51 6 -69 17 -116
15 -117 -6 -7 -103 12 -224 47 -300 8 -17 17 -46 20 -63 l7 -31 -82 6 c-64 6
-81 4 -82 -6 -5 -63 45 -261 86 -337 19 -36 32 -68 30 -71 -3 -2 -36 -5 -73
-5 l-67 -1 1 -42 c2 -54 49 -223 80 -290 13 -28 25 -62 27 -75 2 -22 -1 -23
-63 -23 -54 0 -65 -3 -68 -18 -10 -48 52 -246 114 -369 14 -27 24 -51 22 -53
-2 -2 -29 -5 -62 -8 -32 -3 -62 -9 -68 -15 -9 -9 15 -114 32 -137 4 -5 22 -46
39 -90 18 -44 55 -124 82 -177 27 -54 49 -99 49 -102 0 -2 -12 -7 -27 -10
-102 -25 -104 -26 -98 -49 22 -78 131 -299 190 -383 l43 -62 -32 -5 c-62 -10
-86 -25 -86 -52 0 -47 136 -285 222 -388 39 -47 39 -47 16 -56 -26 -10 -43 -8
-94 11 -30 11 -39 10 -62 -4 -45 -28 -72 -41 -76 -37 -3 2 -7 58 -11 124 -7
155 -17 250 -31 328 -7 34 -26 34 -83 2 -24 -14 -46 -23 -48 -21 -3 2 -6 69
-8 148 -6 205 -23 321 -50 332 -8 3 -40 -12 -72 -33 -32 -20 -63 -40 -69 -44
-7 -4 -11 14 -11 56 0 62 -10 184 -17 222 -2 11 -7 45 -11 75 -15 112 -28 120
-114 65 -30 -19 -57 -32 -61 -30 -3 2 -7 37 -8 77 -3 144 -34 315 -62 351
l-18 21 -68 -31 c-37 -18 -71 -30 -74 -28 -4 2 -10 37 -13 77 -4 40 -17 105
-30 143 -22 64 -82 203 -92 213 -2 2 -33 -17 -68 -42 -83 -59 -97 -59 -97 -3
0 45 -48 212 -82 285 -30 63 -46 67 -113 32 -31 -17 -58 -30 -60 -30 -1 0 -5
17 -8 38 -13 83 -44 179 -92 278 -40 84 -43 84 -118 37 -45 -28 -62 -21 -70
30 -3 18 -8 46 -12 62 -10 48 -84 210 -106 234 l-21 22 -31 -20 c-51 -33 -96
-55 -101 -50 -3 3 -8 20 -11 39 -11 67 -11 65 -74 203 -57 123 -87 167 -112
167 -12 0 -44 -16 -71 -36 -27 -20 -51 -34 -54 -31 -3 2 -7 17 -10 33 -14 83
-86 233 -134 279 l-29 28 -42 -32 c-24 -17 -46 -31 -50 -31 -4 0 -11 15 -15
33 -16 73 -112 247 -137 247 -8 0 -22 -9 -32 -20 -25 -28 -32 -25 -45 15 -6
19 -45 88 -87 152 -41 65 -102 167 -136 228 -34 60 -71 119 -82 131 -11 11
-21 31 -23 43 -5 52 -136 313 -172 346 -25 23 -26 14 -6 -82 8 -37 17 -86 20
-108 14 -89 90 -424 111 -488 19 -59 20 -70 8 -87 -17 -24 -10 -66 19 -124 11
-21 19 -52 19 -70 0 -17 -1 -50 -1 -73 -1 -31 9 -63 39 -120 50 -96 51 -108 9
-111 -18 -2 -37 -7 -42 -12 -10 -10 68 -194 95 -224 11 -11 19 -25 19 -32 0
-6 7 -17 15 -24 34 -28 12 -60 -40 -60 -12 0 -28 -7 -35 -15 -22 -27 74 -199
162 -290 l29 -30 -48 -14 c-62 -17 -72 -26 -71 -64 1 -39 111 -210 174 -272
l44 -42 -57 -34 c-32 -19 -59 -41 -61 -49 -4 -23 69 -127 153 -217 44 -48 75
-90 73 -99 -2 -9 -23 -24 -48 -33 -56 -21 -64 -54 -27 -109 30 -45 155 -173
220 -226 26 -21 47 -43 47 -50 -1 -6 -20 -23 -44 -39 -39 -24 -44 -31 -43 -62
1 -27 5 -35 19 -35 11 0 18 -7 18 -20 0 -12 6 -20 14 -18 7 2 49 -34 93 -78
44 -45 101 -96 127 -113 25 -18 46 -34 46 -36 0 -3 -25 -19 -55 -36 -93 -52
-93 -55 29 -175 59 -58 133 -122 166 -143 l60 -39 -48 -41 c-43 -38 -46 -42
-29 -55 9 -7 17 -18 17 -23 0 -5 21 -25 48 -43 26 -19 72 -55 102 -80 30 -26
85 -68 123 -94 37 -26 67 -52 67 -56 0 -5 -20 -23 -45 -40 -25 -17 -45 -39
-45 -49 0 -19 91 -97 185 -157 57 -37 79 -49 161 -94 l37 -19 -37 -37 c-20
-20 -36 -38 -36 -39 0 -2 18 -25 40 -50 42 -49 48 -70 28 -98 -17 -22 -23 -17
-97 81 -74 98 -117 142 -173 180 -27 18 -43 23 -45 15 -6 -16 -59 -95 -66 -96
-3 -1 -23 24 -44 56 -54 80 -191 217 -218 217 -15 0 -29 -13 -45 -42 -13 -24
-28 -46 -34 -50 -6 -4 -38 23 -73 61 -56 61 -223 211 -236 211 -3 0 -19 -22
-37 -50 -18 -27 -37 -50 -42 -50 -6 0 -20 12 -31 28 -64 82 -209 212 -237 212
-4 0 -19 -21 -33 -47 -15 -27 -31 -54 -36 -62 -7 -11 -25 2 -83 61 -40 42
-109 99 -152 126 l-80 51 -34 -52 c-19 -29 -38 -55 -41 -59 -4 -4 -39 23 -78
61 -84 83 -205 165 -231 157 -10 -3 -30 -31 -45 -61 -15 -30 -32 -55 -37 -55
-6 0 -30 18 -53 41 -66 63 -281 177 -312 166 -7 -3 -21 -24 -31 -46 -10 -23
-23 -41 -29 -41 -6 0 -27 12 -46 26 -43 33 -178 97 -250 119 l-54 16 -19 -25
-19 -24 -61 28 c-33 16 -108 42 -166 58 -58 17 -150 45 -205 62 -215 67 -454
122 -441 101 3 -5 86 -58 184 -117 156 -95 469 -298 528 -343 12 -9 32 -23 45
-31 47 -30 79 -69 81 -97 0 -15 1 -35 2 -43 1 -8 33 -33 72 -55 39 -22 101
-58 137 -79 l66 -40 -25 -33 c-20 -27 -23 -36 -14 -53 15 -27 98 -80 207 -132
49 -23 89 -42 90 -42 1 -1 -5 -23 -15 -48 -15 -43 -15 -48 0 -65 16 -18 86
-57 121 -67 12 -4 17 -16 17 -44 l0 -39 107 -57 c60 -31 115 -56 123 -56 8 0
21 -4 29 -9 12 -8 8 -18 -21 -53 -36 -45 -58 -80 -58 -96 0 -22 135 -77 313
-127 31 -8 57 -18 57 -20 0 -3 -14 -24 -30 -47 -17 -22 -30 -49 -30 -59 0 -36
147 -98 333 -140 32 -7 60 -16 63 -20 2 -4 -7 -29 -22 -54 -14 -26 -23 -53
-20 -60 12 -33 133 -70 256 -80 41 -3 92 -8 113 -11 l38 -6 -26 -44 c-15 -25
-25 -52 -23 -60 4 -22 114 -64 178 -69 30 -2 91 -6 134 -9 43 -3 81 -8 83 -10
2 -2 -2 -20 -11 -39 -13 -32 -13 -37 2 -50 30 -26 243 -53 398 -50 l81 1 -7
-39 c-5 -24 -3 -44 4 -53 29 -39 156 -70 329 -80 49 -3 92 -8 98 -11 5 -4 9
-17 9 -30 0 -47 126 -101 255 -111 131 -9 159 -13 208 -31 31 -11 54 -27 60
-40 6 -14 25 -27 46 -33 62 -18 218 -43 345 -56 37 -4 81 -17 115 -35 47 -24
221 -75 321 -92 38 -7 234 -59 240 -64 4 -4 -103 4 -165 12 -16 3 -74 7 -128
11 l-97 7 10 -27 c12 -32 1 -33 -100 -10 -38 8 -120 16 -182 17 l-113 2 1 -27
c1 -16 0 -28 -2 -28 -1 0 -22 9 -47 19 -47 20 -144 38 -260 47 -39 3 -78 7
-86 10 -8 3 -11 -1 -8 -10 3 -8 9 -31 12 -50 l7 -36 -70 24 c-61 21 -165 39
-284 49 l-38 3 0 -52 0 -53 -32 10 c-159 47 -267 65 -305 51 -8 -2 -13 -23
-13 -53 0 -33 -4 -49 -12 -49 -7 0 -47 11 -88 24 -60 19 -94 24 -173 22 -113
-1 -117 -4 -117 -83 0 -60 2 -59 -90 -37 -36 9 -110 16 -164 17 -90 0 -101 -2
-117 -21 -12 -16 -16 -34 -13 -61 3 -22 0 -42 -5 -45 -5 -3 -40 0 -78 8 -68
15 -202 15 -236 1 -16 -7 -18 -15 -12 -61 5 -41 3 -54 -7 -54 -107 -3 -248
-11 -269 -15 -36 -8 -54 -31 -51 -65 4 -31 -2 -34 -80 -45 -71 -9 -402 -119
-558 -185 -168 -71 -231 -108 -187 -111 6 0 21 -2 32 -4 11 -2 184 -7 385 -9
387 -6 408 -8 446 -33 30 -19 45 -21 194 -28 140 -6 146 -8 153 -43 8 -38 47
-54 127 -52 181 6 162 9 175 -30 6 -19 22 -40 34 -46 23 -12 119 -11 211 2 25
3 59 7 75 10 17 2 59 11 94 20 35 9 67 12 72 7 7 -7 12 -30 18 -84 1 -3 11
-11 24 -16 34 -16 98 -1 227 52 62 25 121 45 133 43 16 -2 23 -13 29 -43 5
-21 14 -43 21 -47 25 -16 85 -7 182 28 153 55 171 59 213 45 36 -11 42 -9 207
73 94 46 186 86 206 89 20 3 105 39 190 80 85 41 171 78 191 80 21 3 62 22 91
41 63 42 74 45 53 14 -17 -24 -21 -58 -8 -58 5 0 17 -6 27 -14 18 -13 16 -17
-36 -82 -93 -115 -129 -165 -129 -177 0 -7 11 -25 25 -41 l25 -30 -32 -35
c-18 -20 -36 -38 -39 -41 -11 -10 -115 -156 -139 -194 l-23 -39 27 -24 c35
-30 32 -43 -39 -172 -88 -158 -94 -182 -60 -223 17 -20 23 -37 19 -56 -18 -98
-21 -127 -24 -198 -9 -213 -2 -442 16 -487 10 -27 28 -20 43 16 67 162 218
440 244 450 8 3 38 46 68 97 74 126 153 211 235 251 77 38 92 56 173 209 62
115 110 180 135 180 8 0 19 6 26 14 6 8 23 16 38 18 18 2 31 12 40 31 12 24
54 198 66 272 15 94 27 118 48 97 27 -27 65 24 74 98 12 107 17 131 24 123 12
-12 22 -181 35 -603 3 -91 7 -208 10 -260 6 -109 12 -332 20 -675 8 -391 17
-706 20 -770 2 -33 4 -158 5 -278 l3 -217 79 0 79 0 -5 143 c-4 78 -8 214 -11
302 -3 88 -7 205 -10 260 -2 55 -7 192 -10 305 -3 113 -8 243 -10 290 -17 338
-25 1128 -13 1273 6 74 22 117 39 100 4 -4 15 -37 24 -73 25 -96 40 -120 75
-120 21 0 36 -9 55 -34 28 -37 97 -191 114 -254 6 -22 19 -50 30 -63 l18 -22
46 31 c50 35 57 37 57 21 0 -16 106 -223 148 -290 31 -48 43 -59 72 -64 49 -9
121 -78 230 -225 99 -132 283 -360 290 -360 10 0 11 5 13 33 3 33 -16 138 -48
272 -19 81 -37 177 -39 213 -4 70 -32 162 -66 219 l-20 33 25 22 c14 12 25 27
25 34 0 20 -99 206 -131 246 -16 20 -29 40 -29 43 0 3 16 13 35 21 l35 14 -15
38 c-25 59 -123 198 -192 270 -7 8 -18 22 -23 32 -8 15 -6 20 13 26 39 12 48
24 34 44 -13 18 -97 115 -141 163 -15 16 -24 33 -20 38 6 11 2 13 114 -59 88
-57 175 -102 199 -102 8 0 84 -35 170 -77 153 -76 158 -78 239 -80 63 -2 99
-9 145 -29 194 -82 266 -89 277 -29 5 25 10 30 32 28 14 -1 46 -11 70 -22 124
-56 231 -87 262 -75 8 3 18 18 21 34 10 47 29 56 83 41 117 -33 182 -50 208
-54 16 -3 46 -8 67 -12 32 -6 42 -4 63 16 13 12 24 30 24 40 0 29 16 31 103
15 70 -13 182 -21 238 -17 9 0 29 13 44 27 28 26 33 26 174 29 80 2 254 6 386
9 461 10 559 16 578 35 10 10 -87 52 -283 122 -201 71 -501 187 -540 208 -8 5
-16 19 -16 32 -1 13 -2 29 -3 36 -2 23 -189 66 -279 65 l-53 -1 1 37 c3 67 2
71 -37 81 -21 6 -86 11 -144 11 l-106 0 5 49 c4 50 0 58 -40 67 -33 8 -263 7
-287 -1 -19 -6 -20 -3 -14 43 5 44 3 51 -16 61 -40 22 -142 24 -226 7 -44 -10
-90 -19 -102 -22 -25 -5 -26 0 -23 68 1 29 -3 39 -22 49 -38 20 -173 15 -254
-9 -86 -26 -84 -26 -79 -4 2 10 5 33 7 52 l3 35 -40 -3 c-85 -7 -188 -27 -260
-52 l-53 -18 2 31 c1 28 -3 32 -27 35 -35 4 -177 -33 -229 -59 -33 -17 -42
-18 -49 -7 -5 7 -9 16 -9 20 0 13 -37 14 -108 0 -41 -7 -79 -11 -85 -9 -12 4
96 31 168 41 117 18 221 38 237 47 12 7 17 17 13 29 -8 26 45 41 195 56 141
13 300 58 300 85 0 25 92 47 270 64 131 12 180 36 180 86 0 15 3 30 8 33 4 2
45 7 92 10 158 12 259 39 323 90 17 13 17 16 -4 60 -13 25 -21 47 -18 50 2 2
29 6 59 9 104 11 350 83 364 106 3 4 -6 31 -19 59 l-24 52 51 15 c29 8 58 15
66 15 34 0 306 104 332 127 2 2 0 7 -5 11 -16 11 -65 73 -65 81 0 5 18 11 41
15 87 14 294 93 311 119 8 13 -5 39 -44 90 -17 20 -28 44 -25 51 3 8 30 22 59
31 85 27 273 123 304 156 l28 29 -43 44 c-28 28 -42 50 -38 60 3 8 32 29 64
46 94 49 165 92 236 143 l67 49 -35 36 c-41 43 -41 62 0 75 58 19 255 158 255
181 0 7 -11 27 -25 46 l-25 33 53 30 c123 69 207 134 207 159 0 8 -7 23 -15
35 -15 21 -13 23 32 54 27 18 50 35 53 39 8 10 172 116 207 134 88 44 338 137
458 171 152 42 135 76 -39 76 -92 0 -132 -4 -241 -21 -135 -21 -271 -43 -285
-45 -8 -1 -35 -6 -60 -10 -25 -4 -73 -18 -108 -32 l-62 -24 -26 20 c-24 19
-27 19 -77 4 -81 -24 -176 -70 -233 -113 -29 -22 -58 -40 -63 -40 -6 0 -16 10
-22 22 -22 42 -35 49 -66 37 -49 -19 -193 -121 -227 -162 l-32 -39 -18 48
c-10 27 -19 55 -22 62 -6 19 -32 14 -97 -19 -67 -34 -154 -98 -206 -153 -19
-20 -41 -36 -48 -36 -7 0 -24 22 -38 49 -13 27 -29 52 -35 56 -20 12 -83 -30
-176 -118 -53 -50 -100 -102 -105 -115 -13 -34 -31 -16 -59 58 -14 37 -28 60
-37 60 -29 0 -188 -144 -233 -210 -13 -19 -25 -37 -28 -40 -2 -3 -20 15 -41
39 -33 38 -40 42 -58 33 -36 -20 -197 -199 -234 -260 l-35 -60 -33 64 c-18 35
-39 64 -47 64 -26 0 -205 -193 -258 -278 -31 -49 -46 -50 -58 -4 -6 21 -22 41
-49 59 l-39 26 72 42 c144 83 271 174 290 208 9 18 6 24 -18 44 -62 50 -59 46
-38 61 10 7 65 43 122 80 100 66 235 175 246 199 3 8 -19 30 -51 55 l-57 41
23 16 c92 64 271 230 271 251 0 12 -39 48 -61 55 -38 12 -28 35 44 102 40 38
107 103 150 147 87 88 88 94 9 121 -101 36 -96 32 -76 63 9 15 43 53 75 85 33
33 73 77 91 99 18 22 43 52 55 66 34 40 48 79 34 95 -6 8 -36 20 -66 27 -31 7
-59 18 -62 23 -4 6 7 22 23 36 17 14 45 45 63 69 39 50 121 191 121 208 0 13
-43 34 -69 34 -9 0 -25 6 -35 13 -16 11 -11 21 58 111 70 90 146 222 146 251
0 15 -22 25 -54 25 -12 0 -32 7 -44 16 l-22 15 34 35 c60 62 193 269 178 278
-4 2 -27 7 -52 11 -25 4 -48 9 -53 12 -12 7 1 43 33 89 43 61 110 196 110 221
0 17 -9 25 -40 33 -22 6 -40 15 -40 19 0 5 16 33 36 62 31 47 71 125 95 186 7
19 5 24 -16 29 -31 8 -38 29 -20 64 8 16 35 82 60 146 58 150 107 247 195 389
39 62 72 123 73 134 1 12 7 21 14 21 15 0 18 26 4 34 -31 19 -386 -320 -439
-420 -7 -13 -20 -24 -28 -24 -29 0 -135 -120 -178 -202 -26 -49 -38 -55 -60
-32 -9 9 -23 14 -30 11 -22 -9 -77 -95 -113 -177 -18 -41 -37 -76 -42 -78 -5
-2 -22 10 -37 27 -21 24 -30 28 -45 20 -21 -11 -109 -184 -109 -214 0 -11 -5
-27 -10 -35 -8 -13 -15 -12 -51 8 -39 20 -44 21 -60 6 -38 -34 -127 -227 -131
-285 -1 -17 -6 -33 -11 -36 -4 -2 -32 12 -61 32 -37 25 -60 35 -74 31 -37 -12
-120 -215 -124 -301 0 -25 -4 -48 -8 -50 -3 -2 -33 14 -66 36 -32 21 -62 39
-66 39 -11 0 -95 -181 -114 -245 -10 -33 -18 -87 -19 -120 -1 -69 -16 -80 -62
-47 -63 44 -92 38 -119 -27 -26 -61 -54 -188 -54 -240 0 -28 -2 -51 -5 -51 -3
0 -33 14 -66 31 -49 26 -62 29 -75 18 -33 -28 -111 -261 -115 -344 -3 -83 -12
-90 -69 -52 -55 37 -68 39 -84 14 -22 -32 -46 -132 -52 -212 -5 -77 -13 -127
-19 -134 -3 -2 -17 5 -32 15 -28 19 -73 44 -78 44 -8 0 -37 -76 -49 -131 -23
-100 -26 -127 -33 -241 -3 -60 -8 -108 -11 -108 -2 0 -32 18 -65 40 -46 31
-63 38 -73 29 -29 -24 -53 -158 -61 -339 -3 -74 -6 -136 -7 -137 -1 -1 -27 14
-59 34 -50 30 -61 33 -72 22 -29 -32 -48 -183 -54 -431 l-1 -37 -36 21 c-20
12 -38 27 -41 35 -3 7 4 37 16 65 37 89 30 105 -52 110 -21 1 -41 6 -43 10 -3
5 12 37 34 71 41 65 155 294 167 334 5 19 1 25 -20 33 -14 5 -39 10 -55 10
-16 0 -32 4 -35 10 -3 5 9 36 28 67 46 79 154 332 158 368 0 6 5 15 10 21 7 9
4 41 -5 45 0 0 -28 3 -61 6 -33 3 -62 7 -64 9 -2 2 14 34 36 71 83 143 165
349 144 362 -7 5 -38 7 -69 5 -73 -4 -93 6 -73 38 48 77 94 177 125 271 41
125 42 130 19 123 -25 -8 -122 -10 -129 -4 -3 3 8 28 25 54 62 102 116 322 79
325 -17 1 -65 -1 -105 -6 -41 -5 -41 3 0 74 70 119 104 218 98 289 -1 14 -41
13 -148 -4 -24 -4 -43 -4 -43 -2 0 3 15 39 34 79 51 110 89 269 90 374 0 23
-4 30 -18 28 -10 -1 -50 -4 -87 -8 -72 -7 -79 -3 -54 32 32 46 80 219 80 288
l0 50 -40 -1 c-22 -1 -63 -5 -92 -9 l-52 -7 10 33 c21 67 28 105 34 179 18
214 15 277 -14 282 -9 2 -36 -2 -61 -8 -25 -6 -48 -10 -51 -8 -4 2 -1 30 7 61
25 111 35 276 19 316 -8 20 -10 19 -84 -8 -24 -9 -45 -14 -48 -11 -2 2 3 28
11 57 9 30 18 109 21 176 l4 122 -45 -5 -46 -4 8 32 c24 110 25 267 3 295 -18
21 -19 226 -3 395 27 265 29 295 28 363 0 39 -8 90 -17 115 -9 25 -17 43 -17
40z m289 -6247 c-2 -80 -7 -87 -59 -80 -77 10 -77 28 5 121 47 54 56 47 54
-41z m-1107 -145 c71 -93 152 -217 147 -223 -3 -2 -17 -6 -33 -9 -16 -3 -34
-10 -39 -15 -16 -16 10 -74 90 -192 90 -136 128 -212 125 -256 -2 -19 8 -54
22 -81 22 -44 79 -219 90 -276 2 -12 11 -52 19 -91 28 -129 37 -180 43 -245 4
-36 9 -69 12 -74 9 -16 11 -315 2 -321 -11 -7 -89 146 -172 338 -55 130 -91
232 -103 297 -2 14 -15 75 -29 135 -14 61 -28 133 -31 160 -11 80 -14 97 -19
102 -2 2 -18 -3 -35 -11 -16 -9 -32 -12 -35 -7 -3 5 -8 69 -10 142 -7 204 -18
351 -27 378 -7 18 -14 22 -32 16 -59 -18 -65 -6 -62 135 4 160 5 170 14 170 4
0 33 -33 63 -72z m1103 -65 c4 -29 4 -53 0 -53 -14 0 -76 33 -73 39 13 28 54
79 59 73 4 -4 10 -31 14 -59z m-2494 -54 c39 -19 40 -21 26 -42 -21 -31 -39
-27 -59 13 -28 58 -26 60 33 29z m3766 -11 c-14 -34 -36 -39 -64 -16 -21 17
-15 27 20 37 56 16 59 15 44 -21z m-1376 -202 c4 -186 5 -262 2 -268 -2 -3
-19 -1 -38 5 -19 6 -37 8 -40 6 -2 -3 -7 -41 -10 -84 -3 -44 -7 -114 -10 -155
-3 -41 -8 -100 -11 -130 -6 -61 -73 -287 -136 -455 -45 -123 -156 -355 -169
-355 -5 0 -6 17 -3 38 23 155 40 248 75 410 23 103 45 205 50 227 4 22 15 67
24 99 9 36 12 63 7 68 -14 14 34 202 61 236 5 6 6 12 2 12 -4 0 11 33 33 73
45 83 76 172 67 187 -3 5 -15 10 -26 10 -12 0 -19 7 -19 19 0 21 69 114 97
130 26 15 43 -13 44 -73z m-2021 -151 c0 -8 -7 -15 -15 -15 -8 0 -15 7 -15 15
0 8 7 15 15 15 8 0 15 -7 15 -15z m352 -327 c-9 -9 -12 -7 -12 12 0 19 3 21
12 12 9 -9 9 -15 0 -24z m311 -245 c141 -73 425 -331 607 -552 39 -48 110
-160 110 -174 0 -28 -270 201 -419 357 -96 100 -120 128 -193 229 l-72 97 -27
-26 -28 -26 -15 37 c-18 43 -21 75 -6 75 6 0 25 -7 43 -17z m1567 -226 c0 -41
-146 -193 -385 -402 -44 -38 -83 -74 -87 -80 -4 -5 -10 -7 -13 -4 -8 9 104
158 143 191 18 15 32 31 32 37 0 20 181 194 255 244 45 30 55 33 55 14z m97
-503 c-3 -3 -12 -4 -19 -1 -8 3 -5 6 6 6 11 1 17 -2 13 -5z"/>
</g>
</svg>
